# xmcd
#
# Track frame offsets:
#	150
#	30149
#	52282
#	72946
#	88749
#	116932
#	138211
#	159606
#	175665
#	199127
#	219649
#	238061
#
# Disc length: 3393 seconds
#
# Revision: 1
# Processed by: cddbd v1.5.2PL0 Copyright (c) Steve Scherf et al.
# Submitted via: EZCDAudioConverter 8.0.2.1
#
DISCID=ad0d3f0c
DTITLE=Hồ Lệ Thu - Fly
DYEAR=2012
DGENRE=Contemporary Pop
TTITLE0=Để ta say
TTITLE1=Con tim dại khờ
TTITLE2=Chén đắng
TTITLE3=Em vẫn Tin - I still Believe
TTITLE4=Cứ lừa dối đi
TTITLE5=Come back to me
TTITLE6=Đến đây với em
TTITLE7=Có nhớ đêm nào
TTITLE8=Thôi
TTITLE9=Không 1
TTITLE10=Không 2
TTITLE11=Kim
EXTD=
EXTT0=
EXTT1=
EXTT2=
EXTT3=
EXTT4=
EXTT5=
EXTT6=
EXTT7=
EXTT8=
EXTT9=
EXTT10=
EXTT11=
PLAYORDER=
